<svg viewBox="-100 -100 712 712" width="48" height="48" xmlns="http://www.w3.org/2000/svg">
  <circle cx="256" cy="256" r="336" stroke="white" fill="currentColor" stroke-width="20"></circle>
  <g fill="white">
    <path
      d="M302.1 80.2c-.2 19.2-12.2 37.2-30.7 43.5-18.4 6.3-38.7.7-51.2-14.2-12.4-14.9-13.7-36.6-3.8-53.1C226.4 40 246.2 31 265 34.9c21.5 4.5 36.8 23.4 37.1 45.3.1 9.6 15.1 9.7 15 0a62.07 62.07 0 00-40.4-57.5c-23.6-8.7-51.4-1.1-67.4 18.1-16.5 19.8-19.1 48.5-5.7 70.7 13.2 22 39 33.1 64.1 28.6 28.7-5.2 49.1-31.3 49.5-60 0-9.6-15-9.6-15.1.1zM161.7 206c20-19.5 44.9-33.3 72.6-38.1 25.9-4.5 53.2-.4 76.9 10.9 14.5 6.9 27.6 16.2 39.1 27.3 7 6.7 17.6-3.9 10.6-10.6-21.9-21.1-49.4-36.5-79.5-41.9-29.5-5.3-59.6-1.3-86.7 11.3-16.2 7.5-30.8 18.2-43.6 30.6-6.9 6.6 3.7 17.2 10.6 10.5zM71.8 316.5V261c0-6-1.6-14.8 1-20.5 3.2-7.2 11.5-9.3 18.6-9.3 28.9-.1 57.9 0 86.8 0H428.2c6.8.1 14.5 3 17.3 9.8 1 2.4.8 5 .8 7.6v68c0 9.7 15 9.7 15 0V259c0-8.2 1-17.2-2.5-24.9-5.5-11.9-18.6-17.8-31.2-17.9-28.3-.2-56.7 0-85 0h-249c-4.8 0-9.7.1-14.4 1.5-13.8 4.1-22.5 15.5-22.5 29.8V316.6c.1 9.6 15.1 9.6 15.1-.1zM119.6 388.1c-.2 12.5-7.8 23.9-19.6 28.3-12.1 4.5-25.9.7-34-9.3-17.2-21.2 2-53.7 28.9-48.6 14.3 2.7 24.4 15.1 24.7 29.6.2 9.6 15.2 9.7 15 0-.3-19.1-12-35.9-30-42.5-17.6-6.5-38.3-.6-50 14-11.8 14.4-13.6 35.1-4.1 51.3 9.7 16.6 29 24.9 47.7 21.5 21.2-3.9 36-23.2 36.4-44.3.1-9.6-14.9-9.6-15 0zM24.8 478c17.5-17 40.4-27.6 65-27.3 24.2.2 46.9 10.7 64.2 27.3 7 6.7 17.6-3.9 10.6-10.6-20.2-19.3-46.7-31.5-74.8-31.7-28.5-.2-55.3 12-75.6 31.7-6.9 6.7 3.7 17.3 10.6 10.6z"/>
    <g>
      <path
        d="M286.1 388.1c-.2 12.5-7.8 23.9-19.6 28.3-12.1 4.5-25.9.7-34-9.3-17.2-21.2 2-53.7 28.9-48.6 14.4 2.7 24.5 15.1 24.7 29.6.2 9.6 15.2 9.7 15 0-.3-19.1-12-35.9-30-42.5-17.6-6.5-38.3-.6-50 14-11.7 14.5-13.5 35.2-4.1 51.3 9.7 16.6 29 24.9 47.7 21.5 21.2-3.9 36-23.2 36.4-44.3.2-9.6-14.8-9.6-15 0zM191.4 478c17.5-17 40.4-27.6 65-27.3 24.2.2 46.9 10.7 64.2 27.3 7 6.7 17.6-3.9 10.6-10.6-20.2-19.3-46.7-31.5-74.8-31.7-28.5-.2-55.3 12-75.6 31.7-7 6.7 3.6 17.3 10.6 10.6z"/>
    </g>
    <g>
      <path
        d="M452.7 388.1c-.2 12.5-7.8 23.9-19.6 28.3-12.1 4.5-25.9.7-34-9.3-17.2-21.2 2-53.7 28.9-48.6 14.4 2.7 24.4 15.1 24.7 29.6.2 9.6 15.2 9.7 15 0-.3-19.1-12-35.9-30-42.5-17.6-6.5-38.3-.6-50 14-11.7 14.5-13.5 35.2-4.1 51.3 9.7 16.6 29 24.9 47.7 21.5 21.2-3.9 36-23.2 36.4-44.3.2-9.6-14.8-9.6-15 0zM357.9 478c17.5-17 40.4-27.6 65-27.3 24.2.2 46.9 10.7 64.2 27.3 7 6.7 17.6-3.9 10.6-10.6-20.2-19.3-46.7-31.5-74.8-31.7-28.5-.2-55.3 12-75.6 31.7-6.9 6.7 3.7 17.3 10.6 10.6z"/>
    </g>
  </g>
</svg>
