<svg width="183px" height="24px" viewBox="0 0 183 24" version="1.1" xmlns="http://www.w3.org/2000/svg">
  <g stroke="none" stroke-width="1" fill="none" fill-rule="evenodd">
    <g fill="white" fill-rule="nonzero">
      <path
        d="M10.6377465,12.7538028 L4.21183099,12.7538028 C3.58084507,14.1329577 3.14366197,15.195493 2.90028169,15.9414085 C2.65690141,16.6873239 2.51830986,17.4422535 2.48450704,18.2061972 C2.25690141,18.2377465 2.04619718,18.2535211 1.85239437,18.2535211 C0.813521127,18.2535211 0.294084507,17.84 0.294084507,17.0129577 C0.294084507,16.6230986 1.06478873,14.8788732 2.60619718,11.7802817 C4.06647887,8.87549296 5.40507042,6.00338028 6.62197183,3.16394366 C6.42816901,2.87098592 6.13633803,2.52169014 5.74647887,2.11605634 C6.29859155,1.41971831 6.81014085,1.0715493 7.28112676,1.0715493 C7.62140845,1.0715493 7.96169014,1.30704225 8.30197183,1.77802817 C8.64225352,2.24676056 9.00732394,2.97690141 9.3971831,3.9684507 C11.0850704,8.26816901 12.4033803,11.4602817 13.3521127,13.5447887 C14.3008451,15.6292958 15.0264789,16.8901408 15.5290141,17.3273239 C14.9611268,17.9447887 14.4180282,18.2535211 13.8997183,18.2535211 C13.4287324,18.2535211 12.9295775,17.7949296 12.4022535,16.8777465 C11.8749296,15.9605634 11.2867606,14.5859155 10.6377465,12.7538028 Z M7.57183099,5.08732394 L4.99267606,11.1211268 L10.0056338,11.1211268 C9.00056338,8.46197183 8.18929577,6.45070423 7.57183099,5.08732394 Z M19.788169,8.98140845 C19.7250704,10.7977465 19.6935211,12.2501408 19.6935211,13.3385915 C19.6935211,15.5605634 19.8794366,17.0287324 20.2512676,17.7430986 C19.6360563,18.0833803 19.068169,18.2535211 18.5476056,18.2535211 C18.2073239,18.2535211 17.9639437,18.1723944 17.8174648,18.0101408 C17.6709859,17.8478873 17.5977465,17.4985915 17.5977465,16.9622535 C17.5977465,16.5250704 17.6349296,15.5312676 17.7092958,13.9808451 C17.7814085,12.4326761 17.8174648,11.1876056 17.8174648,10.2456338 C17.8174648,8.44507042 17.6315493,7.13126761 17.2597183,6.30422535 C17.6473239,6.18929577 17.995493,6.13183099 18.3042254,6.13183099 C19.1492958,6.13183099 19.6202817,6.57802817 19.7171831,7.47042254 C20.2692958,7.06478873 20.8980282,6.74028169 21.6033803,6.49690141 C22.3087324,6.25352113 22.9701408,6.13183099 23.5876056,6.13183099 C24.2028169,6.13183099 24.7785915,6.23774648 25.3149296,6.44957746 C25.8490141,6.66140845 26.315493,6.99042254 26.7143662,7.43661972 C27.1109859,7.8828169 27.3949296,8.45859155 27.5661972,9.16394366 C27.7352113,9.86929577 27.811831,10.8304225 27.7960563,12.0473239 L27.7960563,13.7273239 C27.7960563,14.9104225 27.8332394,15.7543662 27.9076056,16.2591549 C27.9797183,16.7616901 28.1453521,17.2484507 28.404507,17.7194366 C27.6901408,18.075493 27.1222535,18.2535211 26.7008451,18.2535211 C26.3109859,18.2535211 26.0473239,18.1476056 25.9098592,17.9357746 C25.7723944,17.7261972 25.703662,17.2642254 25.703662,16.5498592 C25.703662,16.1757746 25.7284507,15.5752113 25.7780282,14.748169 C25.8253521,13.9211268 25.8490141,13.0129577 25.8490141,12.023662 C25.8490141,10.4822535 25.6101408,9.39042254 25.1323944,8.74816901 C24.6523944,8.10816901 23.9752113,7.78816901 23.1008451,7.78816901 C22.1273239,7.78816901 21.0230986,8.18591549 19.788169,8.98140845 Z M33.2011268,13.7509859 C31.6597183,12.955493 30.8890141,11.811831 30.8890141,10.32 C30.8890141,9.11887324 31.3307042,8.12056338 32.2140845,7.32507042 C33.0974648,6.52957746 34.2208451,6.13183099 35.5842254,6.13183099 C36.4112676,6.13183099 37.2394366,6.36732394 38.0687324,6.83830986 C39.788169,6.3515493 40.7211268,5.93802817 40.8676056,5.59774648 C41.1740845,5.93802817 41.3273239,6.29521127 41.3273239,6.66929577 C41.3273239,7.02535211 41.1943662,7.32507042 40.9284507,7.5684507 C40.6602817,7.81183099 40.1205634,7.99098592 39.3092958,8.10591549 C39.8614085,8.80225352 40.1374648,9.53239437 40.1374648,10.296338 C40.1374648,11.4140845 39.7115493,12.3380282 38.8597183,13.068169 C38.0078873,13.7983099 36.9239437,14.1633803 35.6078873,14.1633803 C35.2676056,14.1633803 34.9273239,14.1397183 34.5870423,14.0923944 C34.2783099,14.4169014 34.1239437,14.7087324 34.1239437,14.9678873 C34.1239437,15.5357746 34.8867606,15.9740845 36.4123944,16.2828169 C37.9222535,16.5915493 39.0704225,16.964507 39.8569014,17.4016901 C40.6433803,17.8388732 41.0366197,18.5769014 41.0366197,19.6157746 C41.0366197,20.8169014 40.5014085,21.8107042 39.4309859,22.5971831 C38.3605634,23.383662 36.964507,23.7769014 35.2428169,23.7769014 C33.5887324,23.7769014 32.32,23.4411268 31.4366197,22.7695775 C30.5509859,22.0957746 30.108169,21.223662 30.108169,20.1532394 C30.108169,18.5938028 31.0084507,17.4253521 32.8090141,16.6478873 C32.4214085,16.3076056 32.2276056,15.9346479 32.2276056,15.5290141 C32.2276056,14.9926761 32.5521127,14.4 33.2011268,13.7509859 Z M32.7616901,10.1476056 C32.7616901,10.8777465 33.0174648,11.4828169 33.5290141,11.9628169 C34.0405634,12.4405634 34.7098592,12.6794366 35.5369014,12.6794366 C36.348169,12.6794366 37.0174648,12.4405634 37.5447887,11.9628169 C38.0721127,11.4828169 38.3357746,10.8777465 38.3357746,10.1476056 C38.3357746,9.43549296 38.08,8.85183099 37.5684507,8.39661972 C37.0569014,7.94140845 36.395493,7.71380282 35.5842254,7.71380282 C34.7571831,7.71380282 34.08,7.94140845 33.5526761,8.39661972 C33.0253521,8.85183099 32.7616901,9.43549296 32.7616901,10.1476056 Z M34.0022535,17.4997183 C32.6884507,18.0180282 32.0315493,18.7808451 32.0315493,19.788169 C32.0315493,20.5340845 32.3605634,21.1256338 33.0185915,21.5628169 C33.6743662,22.0022535 34.5216901,22.2219718 35.5605634,22.2219718 C36.5994366,22.2219718 37.4388732,22.0225352 38.0788732,21.623662 C38.7211268,21.2270423 39.0422535,20.7121127 39.0422535,20.0788732 C39.0422535,19.1211268 37.3622535,18.2614085 34.0022535,17.4997183 Z M51.2112676,16.6478873 C50.771831,17.2811268 50.2073239,17.7633803 49.5177465,18.0946479 C48.828169,18.428169 48.0946479,18.5949296 47.3171831,18.5949296 C46.5216901,18.5949296 45.8276056,18.428169 45.2349296,18.0946479 C44.6422535,17.7633803 44.1802817,17.2608451 43.8490141,16.5870423 C43.515493,15.9132394 43.3487324,14.96 43.3487324,13.7273239 L43.4704225,10.1239437 C43.4704225,8.61633803 43.2833803,7.54591549 42.9092958,6.91267606 C43.6574648,6.57239437 44.2253521,6.40225352 44.6129577,6.40225352 C45.1988732,6.40225352 45.491831,6.83943662 45.491831,7.71380282 C45.491831,8.26591549 45.4591549,9.0771831 45.3938028,10.1476056 C45.3284507,11.2202817 45.2957746,12.1126761 45.2957746,12.8247887 C45.2957746,14.4653521 45.4907042,15.5526761 45.8805634,16.0867606 C46.2704225,16.6230986 46.8788732,16.8912676 47.7059155,16.8912676 C48.3391549,16.8912676 48.9678873,16.7211268 49.5921127,16.3808451 C50.216338,16.0383099 50.7470423,15.5515493 51.1842254,14.9205634 C51.2495775,13.6698592 51.2822535,12.5746479 51.2822535,11.6349296 C51.2822535,9.26422535 51.063662,7.69802817 50.6264789,6.93633803 C51.3228169,6.58028169 51.8907042,6.40225352 52.3301408,6.40225352 C52.72,6.40225352 52.9667606,6.51943662 53.0704225,6.75380282 C53.176338,6.98816901 53.2292958,7.45464789 53.2292958,8.15323944 L53.1312676,13.4602817 C53.1312676,15.731831 53.3430986,17.1921127 53.7667606,17.8411268 C53.068169,18.1971831 52.5160563,18.3752113 52.1104225,18.3752113 C51.7701408,18.3752113 51.5391549,18.2659155 51.4174648,18.0473239 C51.2957746,17.8287324 51.2270423,17.3622535 51.2112676,16.6478873 Z M59.7025352,17.7194366 C59.0535211,18.075493 58.4698592,18.2535211 57.9515493,18.2535211 C57.6428169,18.2535211 57.3994366,18.1723944 57.2214085,18.0101408 C57.0433803,17.8478873 56.9543662,17.3284507 56.9543662,16.451831 C56.9543662,15.7870423 56.9983099,14.5261972 57.0861972,12.6692958 C57.176338,10.8101408 57.2214085,8.82591549 57.2214085,6.71661972 C57.2214085,3.8456338 56.9938028,2.04507042 56.5385915,1.31492958 C57.1876056,0.956619718 57.7723944,0.777464789 58.2929577,0.777464789 C58.7143662,0.777464789 58.9904225,0.887887324 59.1211268,1.10873239 C59.2495775,1.32732394 59.3138028,1.72056338 59.3138028,2.2884507 C59.3138028,3.19661972 59.2698592,4.48676056 59.1819718,6.15887324 C59.091831,7.82873239 59.0467606,9.95380282 59.0467606,12.5340845 C59.0467606,15.3239437 59.2653521,17.0523944 59.7025352,17.7194366 Z M72.3853521,17.8140845 C71.7183099,18.2197183 71.1988732,18.4225352 70.8270423,18.4225352 C70.2433803,18.4225352 69.9188732,17.976338 69.8535211,17.0839437 C68.7177465,18.0912676 67.5414085,18.5949296 66.324507,18.5949296 C65.1391549,18.5949296 64.1814085,18.2298592 63.4512676,17.4997183 C62.7211268,16.7695775 62.3560563,15.8602817 62.3560563,14.771831 C62.3560563,13.5391549 62.8630986,12.5498592 63.8771831,11.8039437 C64.8912676,11.0580282 66.2501408,10.6850704 67.9538028,10.6850704 C68.555493,10.6850704 69.171831,10.7335211 69.8028169,10.8304225 C69.8208451,10.668169 69.8298592,10.5059155 69.8298592,10.343662 C69.8298592,9.50084507 69.5943662,8.84732394 69.1233803,8.38309859 C68.6523944,7.92112676 67.9864789,7.69014085 67.1256338,7.69014085 C65.7149296,7.69014085 64.7335211,8.18478873 64.1814085,9.17408451 C63.5977465,9.02985915 63.3059155,8.68169014 63.3059155,8.12957746 C63.3059155,7.56169014 63.6630986,7.08732394 64.3774648,6.70647887 C65.091831,6.32338028 66.0574648,6.13183099 67.2743662,6.13183099 C68.6692958,6.13183099 69.7442254,6.48901408 70.4991549,7.20338028 C71.251831,7.91774648 71.628169,8.92394366 71.628169,10.2219718 L71.5571831,13.1898592 C71.5571831,15.623662 71.8332394,17.1650704 72.3853521,17.8140845 Z M69.7791549,12.3380282 C69.0985915,12.2253521 68.4743662,12.1690141 67.9064789,12.1690141 C66.7369014,12.1690141 65.8478873,12.3842254 65.2394366,12.8146479 C64.6309859,13.2450704 64.3267606,13.8816901 64.3267606,14.724507 C64.3267606,15.4050704 64.5464789,15.9369014 64.9859155,16.32 C65.4230986,16.7008451 66.0315493,16.8912676 66.8112676,16.8912676 C68.028169,16.8912676 69.0253521,16.4529577 69.8028169,15.576338 C69.755493,14.5712676 69.7476056,13.491831 69.7791549,12.3380282 Z M77.1549296,8.90704225 C78.3222535,7.25295775 79.4174648,6.42591549 80.4405634,6.42591549 C80.8777465,6.42591549 81.2552113,6.56788732 81.5729577,6.85183099 C81.8884507,7.13577465 82.0461972,7.48056338 82.0461972,7.88619718 C82.0461972,8.42028169 81.6890141,8.93971831 80.9746479,9.44450704 C80.7312676,8.76169014 80.3504225,8.42028169 79.8321127,8.42028169 C79.4580282,8.42028169 79.0557746,8.61070423 78.6253521,8.9915493 C78.1971831,9.37464789 77.7712676,9.93126761 77.3476056,10.6614085 C77.2664789,11.4726761 77.2259155,12.2749296 77.2259155,13.068169 C77.2259155,15.2428169 77.4940845,16.8011268 78.0304225,17.7430986 C77.3814085,18.0833803 76.7729577,18.2535211 76.2050704,18.2535211 C75.7994366,18.2535211 75.5278873,18.1723944 75.3904225,18.0101408 C75.2529577,17.8478873 75.1842254,17.4264789 75.1842254,16.7459155 C75.1842254,16.484507 75.2247887,15.628169 75.3059155,14.1769014 C75.3870423,12.7256338 75.4276056,11.4478873 75.4276056,10.343662 C75.4276056,8.49352113 75.256338,7.24394366 74.9138028,6.59492958 C75.2878873,6.48225352 75.6123944,6.42591549 75.8873239,6.42591549 C76.2614085,6.42591549 76.5780282,6.5228169 76.8371831,6.71661972 C77.096338,6.91267606 77.2259155,7.31830986 77.2259155,7.93352113 C77.2259155,8.21070423 77.2022535,8.53521127 77.1549296,8.90704225 Z M111.373521,12.023662 C111.373521,12.1521127 111.284507,12.2614085 111.106479,12.3515493 C110.928451,12.4416901 110.502535,12.4867606 109.828732,12.4867606 C109.15493,12.4867606 108.432676,12.4338028 107.661972,12.3278873 C106.891268,12.2219718 106.449577,12.1329577 106.336901,12.0608451 C106.221972,11.9864789 106.148732,11.844507 106.117183,11.6349296 C106.051831,11.1639437 105.917746,10.7988732 105.71493,10.5397183 C105.512113,10.2783099 105.08169,9.97746479 104.423662,9.6371831 C103.767887,9.29690141 103.118873,9.02084507 102.47662,8.80901408 C101.83662,8.59943662 101.407324,8.49464789 101.188732,8.49464789 C100.970141,8.49464789 100.80338,8.58816901 100.688451,8.77521127 C100.575775,8.96 100.450704,9.11774648 100.313239,9.2484507 C100.173521,9.37915493 99.8321127,9.60225352 99.2890141,9.91774648 C98.7459155,10.2332394 98.3571831,10.4405634 98.1228169,10.5397183 C97.8861972,10.6366197 97.6946479,10.6850704 97.548169,10.6850704 C97.3385915,10.6850704 97.2338028,10.6073239 97.2338028,10.451831 C97.2338028,10.2985915 97.2946479,10.1284507 97.416338,9.94140845 C97.5380282,9.7543662 97.9391549,9.35323944 98.6197183,8.73802817 C99.3025352,8.12056338 99.7532394,7.55267606 99.971831,7.0343662 C100.190423,6.51380282 100.299718,6.1284507 100.299718,5.87830986 C100.299718,5.62591549 100.193803,5.49971831 99.9819718,5.49971831 C99.8692958,5.49971831 99.7566197,5.53239437 99.6439437,5.59774648 C99.2856338,5.80957746 98.9971831,5.91549296 98.7785915,5.91549296 C98.56,5.91549296 98.4507042,5.84225352 98.4507042,5.69577465 C98.4507042,5.38704225 98.6490141,4.98140845 99.0456338,4.47887324 C99.444507,3.97633803 99.8952113,3.26197183 100.397746,2.33577465 C100.900282,1.41183099 101.167324,0.86084507 101.198873,0.682816901 C101.232676,0.502535211 101.290141,0.384225352 101.371268,0.327887324 C101.452394,0.271549296 101.614648,0.243380282 101.858028,0.243380282 C102.101408,0.243380282 102.324507,0.397746479 102.527324,0.706478873 C102.730141,1.01521127 102.831549,1.26197183 102.831549,1.44676056 C102.831549,1.63380282 102.644507,1.90647887 102.270423,2.26478873 C101.880563,2.62084507 101.560563,2.96901408 101.310423,3.30929577 C101.058028,3.64957746 100.931831,3.86028169 100.931831,3.94140845 C100.931831,4.07211268 101.012958,4.11267606 101.175211,4.06309859 C102.522817,3.70704225 103.56507,3.52901408 104.301972,3.52901408 C105.041127,3.52901408 105.755493,3.78478873 106.44507,4.29633803 C107.134648,4.80788732 107.479437,5.18873239 107.479437,5.43887324 C107.479437,5.69126761 107.041127,5.96732394 106.164507,6.26704225 C105.287887,6.56676056 104.549859,6.71661972 103.950423,6.71661972 C103.788169,6.71661972 103.707042,6.68056338 103.707042,6.6084507 C103.707042,6.53408451 103.83662,6.40788732 104.095775,6.22985915 C104.35493,6.05183099 104.585915,5.80056338 104.788732,5.47605634 C104.991549,5.1515493 105.092958,4.93295775 105.092958,4.82028169 C105.092958,4.70535211 105.03662,4.56676056 104.923944,4.40450704 C104.811268,4.24225352 104.56,4.16112676 104.170141,4.16112676 C103.521127,4.16112676 103.029859,4.25014085 102.696338,4.42816901 C102.36507,4.6084507 102.113803,4.73915493 101.942535,4.82028169 C101.771268,4.90140845 101.685634,5.0028169 101.685634,5.12450704 C101.685634,5.24619718 101.735211,5.36338028 101.834366,5.47605634 C102.158873,5.80056338 102.321127,6.02366197 102.321127,6.14535211 C102.321127,6.26704225 102.291831,6.38084507 102.233239,6.48676056 C102.176901,6.59267606 102.148732,6.6771831 102.148732,6.74028169 C102.148732,6.8056338 102.165634,6.85859155 102.199437,6.89915493 C102.230986,6.93971831 102.335775,7.03774648 102.513803,7.19323944 C102.691831,7.34647887 103.012958,7.57746479 103.477183,7.88619718 C103.939155,8.19492958 104.312113,8.43830986 104.596056,8.61633803 C104.88,8.7943662 105.410704,9.08169014 106.188169,9.47830986 C106.967887,9.8771831 107.39831,10.084507 107.479437,10.1002817 C108.696338,10.5216901 109.601127,10.8788732 110.193803,11.171831 C110.786479,11.4625352 111.131268,11.6529577 111.228169,11.7430986 C111.32507,11.8332394 111.373521,11.9267606 111.373521,12.023662 Z M95.6991549,2.89690141 L95.675493,3.11661972 C95.675493,3.32619718 95.731831,3.56507042 95.844507,3.83323944 C95.9594366,4.10140845 96.1183099,4.34028169 96.3211268,4.54985915 C96.5239437,4.76169014 96.7301408,5.03774648 96.9397183,5.37802817 C97.1515493,5.71830986 97.2574648,5.93352113 97.2574648,6.02366197 C97.2574648,6.11380282 97.176338,6.19492958 97.0140845,6.26704225 C96.851831,6.33915493 96.616338,6.37521127 96.3076056,6.37521127 C95.9988732,6.37521127 95.6180282,6.2828169 95.1650704,6.09802817 C94.7098592,5.91098592 94.4259155,5.74422535 94.3132394,5.59774648 C94.1983099,5.45126761 94.1408451,5.17183099 94.1408451,4.75943662 C94.1408451,4.34478873 94.1938028,3.96732394 94.2997183,3.62704225 C94.4056338,3.28676056 94.6050704,3.06366197 94.8980282,2.95774648 C95.1887324,2.85183099 95.3949296,2.79887324 95.5166197,2.79887324 C95.6383099,2.79887324 95.6991549,2.8315493 95.6991549,2.89690141 Z M97.8185915,6.86197183 C97.8185915,7.04225352 97.4535211,7.62704225 96.7233803,8.61633803 C95.9932394,9.6056338 95.355493,10.404507 94.8101408,11.0129577 C94.2670423,11.6214085 93.8985915,11.9256338 93.7047887,11.9256338 C93.4456338,11.9256338 93.2146479,11.7273239 93.011831,11.3307042 C92.8090141,10.931831 92.7076056,10.6388732 92.7076056,10.451831 C92.7076056,10.2670423 92.8405634,10.1092958 93.1064789,9.97859155 C93.3746479,9.84788732 93.6709859,9.62028169 93.995493,9.29577465 C94.2230986,9.08619718 94.7019718,8.75380282 95.4321127,8.29859155 C96.1622535,7.8456338 96.7707042,7.3915493 97.2574648,6.93633803 C97.4197183,6.78985915 97.5538028,6.71661972 97.6597183,6.71661972 C97.7656338,6.71661972 97.8185915,6.76507042 97.8185915,6.86197183 Z M104.535211,11.4388732 C104.535211,11.6011268 104.477746,11.844507 104.362817,12.1690141 C104.153239,12.8180282 104.031549,14.2219718 103.997746,16.3808451 C103.997746,16.7369014 103.977465,16.9712676 103.936901,17.0839437 C103.896338,17.1988732 103.819718,17.256338 103.707042,17.256338 C103.594366,17.256338 103.396056,17.2112676 103.112113,17.1211268 C102.828169,17.0332394 102.616338,16.9487324 102.47662,16.8676056 C102.339155,16.7864789 102.290704,16.635493 102.331268,16.4146479 C102.371831,16.1960563 102.392113,15.7419718 102.392113,15.0523944 C102.392113,14.3628169 102.371831,13.7340845 102.331268,13.1661972 C102.290704,12.5983099 102.145352,12.1847887 101.895211,11.9256338 C101.642817,11.6664789 101.31831,11.5369014 100.92169,11.5369014 C100.522817,11.5369014 100.08,11.5977465 99.5932394,11.7194366 C99.1064789,11.8411268 98.7819718,11.9909859 98.6197183,12.1690141 C98.4574648,12.3470423 98.291831,12.663662 98.1228169,13.1188732 C97.9515493,13.571831 97.8005634,14.1352113 97.6698592,14.8090141 C97.5414085,15.4828169 97.4692958,16.0304225 97.4535211,16.451831 C97.435493,16.8732394 97.3374648,17.1335211 97.1594366,17.2326761 C96.9814085,17.3295775 96.8439437,17.3780282 96.7470423,17.3780282 C96.3729577,17.3780282 96.1859155,16.8338028 96.1859155,15.7453521 C96.1859155,15.195493 96.2433803,14.4856338 96.3583099,13.6157746 C96.4709859,12.748169 96.6129577,12.2501408 96.7842254,12.1216901 C96.9532394,11.9909859 97.6946479,11.7025352 99.0084507,11.256338 C100.324507,10.8101408 101.298028,10.5870423 101.929014,10.5870423 C102.562254,10.5870423 103.106479,10.6523944 103.56169,10.7830986 C104.014648,10.9115493 104.290704,11.016338 104.389859,11.0974648 C104.486761,11.1785915 104.535211,11.2923944 104.535211,11.4388732 Z M100.931831,13.4602817 C100.931831,13.5729577 100.908169,13.6946479 100.860845,13.8253521 C100.680563,14.3932394 100.566761,14.8878873 100.519437,15.3092958 C100.43831,16.023662 100.227606,16.6929577 99.8873239,17.3171831 C99.5447887,17.9414085 99.3735211,18.3752113 99.3735211,18.6185915 L99.4005634,18.9092958 C99.4005634,19.04 99.3476056,19.1740845 99.2416901,19.3115493 C99.1357746,19.4490141 98.8315493,19.6766197 98.3290141,19.9943662 C97.8264789,20.3098592 97.2912676,20.5859155 96.7233803,20.8225352 C96.155493,21.0569014 95.7171831,21.1740845 95.4084507,21.1740845 C95.2935211,21.1740845 95.2360563,21.1414085 95.2360563,21.0760563 C95.2360563,20.9476056 95.4591549,20.668169 95.9053521,20.2377465 C96.3515493,19.8073239 96.6478873,19.5357746 96.7943662,19.4230986 C97.3149296,19.0174648 97.8873239,18.3030986 98.5115493,17.28 C99.1357746,16.2569014 99.4478873,14.9667606 99.4478873,13.4095775 C99.4478873,13.1504225 99.4760563,12.9926761 99.5323944,12.936338 C99.5887324,12.88 99.7385915,12.851831 99.9819718,12.851831 C100.615211,12.851831 100.931831,13.0546479 100.931831,13.4602817 Z M105.410704,19.5447887 C105.410704,19.788169 105.32507,20.1329577 105.153803,20.5791549 C104.984789,21.0253521 104.847324,21.2484507 104.741408,21.2484507 C104.635493,21.2484507 104.477746,21.1425352 104.268169,20.9307042 C103.260845,20.0067606 102.64338,19.4749296 102.415775,19.3352113 C102.190423,19.1977465 101.906479,18.9228169 101.563944,18.5104225 C101.223662,18.0957746 101.053521,17.8197183 101.053521,17.6822535 C101.053521,17.5447887 101.094085,17.4760563 101.175211,17.4760563 C101.256338,17.4760563 101.552676,17.524507 102.064225,17.6214085 C102.575775,17.7183099 103.118873,17.9008451 103.693521,18.1690141 C104.270423,18.4371831 104.660282,18.6230986 104.863099,18.7267606 C105.065915,18.8326761 105.207887,18.9543662 105.289014,19.091831 C105.370141,19.2315493 105.410704,19.3825352 105.410704,19.5447887 Z M132.814648,9.58985915 C132.814648,9.67098592 132.738028,9.86591549 132.584789,10.1746479 C132.429296,10.4811268 132.295211,10.7729577 132.182535,11.0501408 C131.792676,12.0394366 131.362254,12.8022535 130.891268,13.3385915 C130.422535,13.8726761 130.016901,14.1397183 129.674366,14.1397183 C129.577465,14.1397183 129.44,14.1160563 129.261972,14.0687324 C129.083944,14.0191549 128.909296,13.9943662 128.738028,13.9943662 C128.569014,13.9943662 128.464225,14.0191549 128.423662,14.0687324 C128.383099,14.1160563 128.338028,14.3391549 128.288451,14.7380282 C128.238873,15.1346479 128.214085,15.5030986 128.214085,15.8433803 L128.264789,17.0129577 L128.190423,18.5712676 C128.190423,19.1211268 128.223099,19.5425352 128.288451,19.835493 C128.353803,20.1284507 128.386479,20.343662 128.386479,20.4811268 C128.386479,20.6185915 128.341408,20.748169 128.251268,20.8698592 C128.16338,20.9915493 128.049577,21.0523944 127.909859,21.0523944 C127.772394,21.0523944 127.31831,20.9228169 126.547606,20.663662 C125.776901,20.404507 124.896901,19.8602817 123.907606,19.0309859 C123.842254,18.9678873 123.793803,18.936338 123.762254,18.936338 C123.728451,18.936338 123.687887,18.96 123.640563,19.0073239 C123.590986,19.0569014 123.472676,19.0816901 123.285634,19.0816901 C123.100845,19.0816901 122.785352,18.9194366 122.339155,18.5949296 C121.892958,18.2704225 121.669859,17.9132394 121.669859,17.5233803 C121.669859,17.3926761 121.698028,17.2709859 121.754366,17.1583099 C121.810704,17.0456338 121.980845,16.7977465 122.264789,16.4146479 C122.548732,16.0338028 122.832676,15.6980282 123.11662,15.4073239 C123.400563,15.1143662 123.583099,14.9397183 123.664225,14.8833803 C123.745352,14.8270423 123.818592,14.7988732 123.883944,14.7988732 C124.030423,14.7988732 124.103662,15.0298592 124.103662,15.491831 C124.103662,15.9538028 124.046197,16.428169 123.931268,16.9149296 C123.818592,17.4016901 123.762254,17.8321127 123.762254,18.2061972 C123.762254,18.3188732 123.79831,18.4112676 123.870423,18.4833803 C123.944789,18.5577465 124.180282,18.6433803 124.576901,18.7402817 C124.973521,18.8371831 125.358873,18.8856338 125.732958,18.8856338 C126.107042,18.8856338 126.350423,18.8247887 126.463099,18.7030986 C126.575775,18.5814085 126.649014,18.4676056 126.682817,18.3616901 C126.714366,18.2580282 126.730141,17.8895775 126.730141,17.256338 C126.730141,16.6230986 126.706479,16.0912676 126.659155,15.6608451 C126.609577,15.2304225 126.539718,14.9340845 126.449577,14.771831 C126.36169,14.6095775 126.305352,14.5205634 126.280563,14.5047887 C126.255775,14.4890141 126.202817,14.4811268 126.12169,14.4811268 C125.87831,14.4811268 125.525634,14.1926761 125.063662,13.6157746 C124.60169,13.0411268 124.249014,12.4214085 124.005634,11.7566197 C123.924507,11.576338 123.835493,11.4343662 123.738592,11.3307042 C123.639437,11.2247887 123.566197,11.171831 123.518873,11.171831 C123.469296,11.171831 123.428732,11.2123944 123.397183,11.2935211 C123.138028,11.9267606 122.756056,12.7616901 122.251268,13.7983099 C122.04169,14.2535211 121.838873,14.8214085 121.642817,15.5019718 C121.449014,16.1847887 121.092958,16.8585915 120.574648,17.5233803 C120.054085,18.188169 119.530141,18.6546479 119.002817,18.9228169 C118.475493,19.1909859 118.102535,19.3250704 117.883944,19.3250704 C117.665352,19.3250704 117.556056,19.2597183 117.556056,19.1290141 C117.556056,18.7076056 118.075493,17.9943662 119.114366,16.9892958 C120.621972,15.5290141 121.732958,13.4478873 122.447324,10.7459155 C123.16169,8.04394366 123.518873,6.34366197 123.518873,5.64507042 C123.518873,5.32056338 123.450141,5.04112676 123.312676,4.80676056 C123.172958,4.57239437 123.103099,4.38197183 123.103099,4.23549296 C123.103099,3.89521127 123.355493,3.70028169 123.860282,3.65070423 C124.621972,3.56957746 125.473803,3.37126761 126.415775,3.05577465 C127.355493,2.73802817 128.060845,2.53859155 128.531831,2.45746479 C129.002817,2.37633803 129.441127,2.33577465 129.846761,2.33577465 C130.252394,2.33577465 130.499155,2.36056338 130.587042,2.41014085 C130.677183,2.45746479 130.770704,2.59492958 130.867606,2.82253521 C130.964507,3.05014085 131.050141,3.24957746 131.124507,3.42084507 C131.19662,3.58985915 131.232676,3.73521127 131.232676,3.85690141 C131.232676,3.97859155 131.184225,4.09239437 131.087324,4.19830986 C130.990423,4.30422535 130.873239,4.34929577 130.735775,4.33352113 C130.596056,4.31549296 130.295211,4.30647887 129.833239,4.30647887 C129.371268,4.30647887 128.860845,4.39211268 128.301972,4.56338028 C127.740845,4.73464789 127.188732,4.92957746 126.645634,5.14816901 C126.102535,5.36676056 125.696901,5.66647887 125.428732,6.04732394 C125.160563,6.42816901 124.901408,6.99605634 124.651268,7.75098592 C124.398873,8.50591549 124.272676,8.91943662 124.272676,8.9915493 C124.272676,9.06591549 124.349296,9.10309859 124.502535,9.10309859 C124.658028,9.10309859 124.869859,9.0456338 125.138028,8.93070423 C125.403944,8.81802817 125.594366,8.7571831 125.709296,8.74816901 C125.821972,8.74140845 126.007887,8.46197183 126.267042,7.90985915 C126.528451,7.35774648 126.699718,6.96788732 126.780845,6.74028169 C126.861972,6.51492958 126.934085,6.29633803 126.997183,6.08450704 C127.143662,5.59774648 127.302535,5.3543662 127.473803,5.3543662 C127.642817,5.3543662 127.800563,5.38704225 127.947042,5.45239437 C128.093521,5.51774648 128.369577,5.62253521 128.775211,5.76676056 C129.180845,5.91323944 129.383662,6.09239437 129.383662,6.30422535 C129.383662,6.43267606 129.274366,6.59492958 129.055775,6.79098592 C128.837183,6.98478873 128.670423,7.21577465 128.555493,7.48394366 C128.442817,7.75211268 128.386479,7.91887324 128.386479,7.98422535 C128.386479,8.04732394 128.495775,8.06760563 128.714366,8.04507042 C128.932958,8.02028169 129.163944,8.00788732 129.407324,8.00788732 C130.333521,8.00788732 131.132394,8.21070423 131.803944,8.61633803 C132.477746,9.02197183 132.814648,9.34647887 132.814648,9.58985915 Z M126.294085,12.9735211 C126.406761,12.9735211 126.917183,12.8676056 127.825352,12.6557746 C128.733521,12.4439437 129.260845,12.2659155 129.407324,12.1216901 C129.553803,11.9752113 129.695775,11.6619718 129.833239,11.1819718 C129.970704,10.7042254 130.039437,10.2264789 130.039437,9.74873239 C130.039437,9.26873239 129.828732,9.02873239 129.407324,9.02873239 C128.985915,9.02873239 128.336901,9.15492958 127.460282,9.40732394 C126.583662,9.65746479 126.043944,9.85577465 125.841127,10.0022535 C125.63831,10.1487324 125.536901,10.2873239 125.536901,10.4180282 C125.536901,10.5802817 125.586479,10.6614085 125.685634,10.6614085 C125.782535,10.6614085 125.956056,10.6208451 126.206197,10.5397183 C126.458592,10.4585915 126.828169,10.3808451 127.31493,10.3064789 C127.80169,10.2343662 128.11831,10.1983099 128.264789,10.1983099 C128.589296,10.1983099 128.751549,10.3932394 128.751549,10.7830986 C128.751549,11.1707042 128.544225,11.4095775 128.129577,11.4997183 C127.717183,11.5898592 127.263099,11.7397183 126.767324,11.9492958 C126.271549,12.1611268 126.023662,12.3842254 126.023662,12.6185915 C126.023662,12.8552113 126.113803,12.9735211 126.294085,12.9735211 Z M120.645634,6.44957746 C120.645634,6.92056338 120.48338,7.15605634 120.158873,7.15605634 C119.834366,7.15605634 119.433239,7.05014085 118.955493,6.83830986 C118.475493,6.62873239 118.16338,6.34478873 118.019155,5.98647887 C117.872676,5.63042254 117.799437,5.22478873 117.799437,4.76957746 C117.799437,4.31661972 117.908732,3.94816901 118.127324,3.66422535 C118.345915,3.38028169 118.553239,3.23830986 118.749296,3.23830986 C118.943099,3.23830986 119.105352,3.35098592 119.236056,3.57633803 C119.560563,4.16225352 119.835493,4.61746479 120.060845,4.94197183 C120.450704,5.5256338 120.645634,6.02816901 120.645634,6.44957746 Z M121.426479,8.76169014 C121.426479,9.34535211 121.138028,10.4405634 120.561127,12.0473239 C119.984225,13.6540845 119.249577,14.9926761 118.357183,16.0630986 C117.92,16.5814085 117.628169,16.9419718 117.48169,17.1447887 C117.335211,17.3476056 117.172958,17.4490141 116.99493,17.4490141 C116.816901,17.4490141 116.679437,17.3397183 116.582535,17.1211268 C116.485634,16.9025352 116.331268,16.5014085 116.119437,15.9177465 C115.907606,15.3340845 115.80169,14.8270423 115.80169,14.3966197 C115.80169,13.9661972 115.834366,13.543662 115.899718,13.1290141 C115.96507,12.7166197 116.013521,12.2794366 116.04507,11.8174648 C116.078873,11.3532394 116.176901,10.715493 116.339155,9.90422535 C116.501408,9.09295775 116.646761,8.63887324 116.775211,8.54197183 C116.905915,8.44507042 117.060282,8.39661972 117.23831,8.39661972 C117.416338,8.39661972 117.67662,8.51830986 118.019155,8.76169014 C118.359437,9.00507042 118.529577,9.25633803 118.529577,9.51549296 C118.529577,9.92112676 118.245634,10.3267606 117.677746,10.7323944 C117.157183,11.1222535 116.787606,11.6946479 116.569014,12.4495775 C116.350423,13.204507 116.241127,13.764507 116.241127,14.1295775 C116.241127,14.4946479 116.411268,14.6771831 116.751549,14.6771831 C117.091831,14.6771831 117.60338,14.3560563 118.286197,13.7138028 C118.966761,13.0738028 119.486197,12.2501408 119.844507,11.2428169 C119.941408,10.9678873 120.172394,10.4450704 120.537465,9.6743662 C120.902535,8.90366197 121.141408,8.51830986 121.254085,8.51830986 C121.369014,8.51830986 121.426479,8.59943662 121.426479,8.76169014 Z M129.627042,15.2856338 C129.739718,15.2856338 130.036056,15.3374648 130.516056,15.4411268 C130.993803,15.5470423 131.521127,15.7014085 132.098028,15.9042254 C132.672676,16.1070423 133.017465,16.2569014 133.132394,16.3538028 C133.24507,16.4529577 133.341972,16.64 133.423099,16.9149296 C133.504225,17.1898592 133.544789,17.4783099 133.544789,17.7802817 C133.544789,18.08 133.399437,18.4157746 133.108732,18.7876056 C132.815775,19.1616901 132.603944,19.3487324 132.473239,19.3487324 C132.344789,19.3487324 132.211831,19.2878873 132.074366,19.1661972 C131.934648,19.044507 131.577465,18.6140845 131.002817,17.8749296 C130.425915,17.1380282 130.012394,16.5791549 129.762254,16.1983099 C129.509859,15.8152113 129.383662,15.5752113 129.383662,15.4783099 C129.383662,15.3498592 129.464789,15.2856338 129.627042,15.2856338 Z M151.311549,13.3622535 L151.970704,13.3622535 C153.122254,13.4095775 154.727887,13.3442254 156.787606,13.1661972 C156.965634,13.1504225 157.148169,13.1425352 157.335211,13.1425352 C157.522254,13.1425352 157.692394,13.2191549 157.845634,13.3723944 C158.001127,13.5278873 158.167887,13.788169 158.345915,14.1532394 C158.523944,14.5183099 158.612958,14.7977465 158.612958,14.9915493 C158.612958,15.3160563 158.418028,15.4783099 158.028169,15.4783099 C157.865915,15.4783099 157.68,15.4546479 157.470423,15.4073239 C155.863662,14.983662 154.573521,14.771831 153.6,14.771831 C153.32507,14.771831 152.967887,14.7966197 152.528451,14.8461972 L151.55493,14.9442254 C151.345352,14.9757746 151.223662,15.0084507 151.189859,15.0422535 C151.15831,15.0738028 151.125634,15.1707042 151.091831,15.3329577 C151.060282,15.4952113 151.03662,15.6247887 151.020845,15.7216901 C150.905915,16.2084507 150.848451,16.7932394 150.848451,17.4760563 C150.848451,18.1566197 150.868732,18.776338 150.909296,19.3352113 C150.949859,19.896338 150.970141,20.3188732 150.970141,20.6028169 C150.970141,20.8867606 150.934085,21.0692958 150.861972,21.1504225 C150.789859,21.2315493 150.623099,21.2721127 150.36169,21.2721127 C149.649577,21.2721127 148.867606,21.0771831 148.015775,20.6873239 C147.163944,20.2974648 146.437183,19.7780282 145.835493,19.1290141 C145.770141,19.063662 145.705915,19.0309859 145.642817,19.0309859 C145.512113,19.0309859 145.309296,19.331831 145.034366,19.9335211 C144.919437,20.1926761 144.777465,20.3222535 144.608451,20.3222535 C144.437183,20.3222535 144.112676,20.216338 143.63493,20.004507 C143.15493,19.7949296 142.91493,19.604507 142.91493,19.4332394 C142.91493,19.2642254 143.041127,19.0377465 143.293521,18.7538028 C143.543662,18.4698592 143.830986,18.075493 144.155493,17.5707042 C144.48,17.068169 144.780845,16.7121127 145.058028,16.5025352 C145.332958,16.2907042 145.518873,16.108169 145.615775,15.9549296 C145.71493,15.7994366 145.764507,15.6980282 145.764507,15.6507042 C145.764507,15.6011268 145.731831,15.576338 145.666479,15.576338 C145.601127,15.576338 144.935211,15.7870423 143.668732,16.2084507 C142.404507,16.6298592 141.577465,16.9464789 141.187606,17.1583099 C141.090704,17.2078873 140.976901,17.2326761 140.846197,17.2326761 C140.717746,17.2326761 140.596056,17.1346479 140.481127,16.9385915 C140.368451,16.7447887 140.24338,16.5588732 140.105915,16.3808451 C139.966197,16.2005634 139.896338,16.0416901 139.896338,15.9042254 C139.896338,15.7667606 139.986479,15.6529577 140.166761,15.5628169 C140.344789,15.4749296 140.953239,15.3092958 141.992113,15.0659155 C143.028732,14.8225352 143.779155,14.6726761 144.24338,14.616338 C144.705352,14.5577465 145.467042,14.4191549 146.528451,14.2005634 C147.592113,13.9819718 148.20507,13.844507 148.367324,13.788169 C148.529577,13.731831 148.691831,13.6788732 148.854085,13.6292958 C149.016338,13.5797183 149.097465,13.5143662 149.097465,13.4332394 L149.144789,12.851831 C149.144789,12.7211268 149.063662,12.6557746 148.901408,12.6557746 C148.739155,12.6557746 148.383099,12.7008451 147.833239,12.7909859 C147.281127,12.8788732 146.891268,12.9509859 146.663662,13.0073239 C146.436056,13.0659155 146.27831,13.1391549 146.190423,13.2270423 C146.100282,13.3171831 145.949296,13.4061972 145.737465,13.4940845 C145.527887,13.5842254 145.382535,13.6292958 145.301408,13.6292958 C145.139155,13.6292958 145.050141,13.5076056 145.034366,13.2642254 C145.016338,13.0208451 145.007324,12.1938028 145.007324,10.7830986 C145.007324,9.37014085 144.983662,8.50591549 144.936338,8.19042254 C144.886761,7.87267606 144.821408,7.71380282 144.740282,7.71380282 C144.64338,7.71380282 144.367324,7.96619718 143.912113,8.47098592 C143.652958,8.76169014 143.39831,8.90704225 143.148169,8.90704225 C142.895775,8.90704225 142.769577,8.83042254 142.769577,8.6771831 C142.769577,8.52169014 142.886761,8.20507042 143.121127,7.72732394 C143.357746,7.24957746 143.775775,6.51943662 144.375211,5.53690141 C144.976901,4.5543662 145.529014,3.71830986 146.031549,3.02873239 C146.534085,2.33915493 146.83831,1.95042254 146.944225,1.86253521 C147.050141,1.77239437 147.163944,1.72732394 147.285634,1.72732394 C147.407324,1.72732394 147.618028,1.88957746 147.917746,2.21408451 C148.217465,2.53859155 148.367324,2.78985915 148.367324,2.96788732 C148.367324,3.14816901 148.318873,3.29464789 148.221972,3.40732394 C147.167324,4.67380282 146.64,5.37126761 146.64,5.49971831 C146.64,5.56507042 146.724507,5.59774648 146.893521,5.59774648 C147.064789,5.59774648 147.389296,5.46816901 147.867042,5.20901408 C148.347042,4.94985915 148.749296,4.77971831 149.073803,4.69859155 C149.39831,4.61746479 149.59662,4.54422535 149.668732,4.47887324 C149.743099,4.41352113 149.922254,4.12169014 150.206197,3.60338028 C150.490141,3.0828169 150.753803,2.48225352 150.997183,1.80169014 C151.07831,1.55830986 151.187606,1.43661972 151.32507,1.43661972 C151.462535,1.43661972 151.72169,1.55380282 152.102535,1.78816901 C152.48338,2.02478873 152.673803,2.21521127 152.673803,2.35943662 C152.673803,2.50591549 152.625352,2.64 152.528451,2.76169014 C152.431549,2.88338028 152.241127,3.14704225 151.957183,3.55267606 C151.673239,3.95830986 151.531268,4.19830986 151.531268,4.27267606 C151.531268,4.34478873 151.616901,4.37295775 151.788169,4.3571831 C151.957183,4.34140845 152.272676,4.33352113 152.734648,4.33352113 C153.198873,4.33352113 153.563944,4.29633803 153.829859,4.22197183 C154.098028,4.14985915 154.264789,4.11380282 154.330141,4.11380282 C154.541972,4.11380282 154.688451,4.26816901 154.769577,4.57690141 C154.850704,4.88338028 154.891268,5.13464789 154.891268,5.33070423 C154.891268,5.68676056 154.712113,5.86478873 154.353803,5.86478873 C154.272676,5.86478873 154.098028,5.84450704 153.829859,5.80394366 C153.563944,5.76338028 153.183099,5.74309859 152.687324,5.74309859 C152.191549,5.74309859 151.912113,5.78028169 151.849014,5.85464789 C151.783662,5.92676056 151.750986,6.0484507 151.750986,6.21971831 C151.750986,6.38873239 151.807324,6.47323944 151.92,6.47323944 L152.406761,6.44957746 C152.715493,6.44957746 153.052394,6.48225352 153.417465,6.54760563 C153.782535,6.61295775 153.96507,6.77859155 153.96507,7.04450704 C153.96507,7.31267606 153.92,7.51549296 153.829859,7.65295775 C153.741972,7.79267606 153.604507,7.8456338 153.417465,7.81183099 C153.230423,7.78028169 153.076056,7.76450704 152.954366,7.76450704 C152.832676,7.76450704 152.642254,7.78478873 152.383099,7.82535211 C152.123944,7.86591549 151.96169,7.89408451 151.896338,7.90985915 C151.830986,7.9256338 151.79831,8.05183099 151.79831,8.2884507 C151.79831,8.5228169 151.887324,8.63211268 152.065352,8.61633803 C152.342535,8.56676056 152.651268,8.54197183 152.991549,8.54197183 C153.331831,8.54197183 153.595493,8.57464789 153.782535,8.64 C153.969577,8.70535211 154.063099,8.83492958 154.063099,9.02873239 C154.063099,9.63042254 153.924507,9.93126761 153.647324,9.93126761 L153.430986,9.90422535 C153.187606,9.90422535 152.886761,9.93690141 152.528451,10.0022535 C152.172394,10.0676056 151.945915,10.1329577 151.849014,10.1983099 C151.749859,10.263662 151.700282,10.3684507 151.700282,10.5126761 C151.700282,10.6591549 151.745352,10.7492958 151.835493,10.7830986 C151.925634,10.8146479 152.103662,10.8304225 152.369577,10.8304225 C152.637746,10.8304225 153.019718,10.8146479 153.515493,10.7830986 C154.009014,10.7492958 154.321127,10.72 154.451831,10.6952113 C154.582535,10.6726761 154.688451,10.6614085 154.769577,10.6614085 C155.044507,10.6614085 155.247324,10.8394366 155.378028,11.195493 C155.506479,11.5515493 155.570704,11.7870423 155.570704,11.9019718 C155.570704,12.1453521 155.400563,12.2670423 155.060282,12.2670423 C155.028732,12.2670423 154.760563,12.2422535 154.255775,12.1926761 C153.753239,12.1453521 153.344225,12.1216901 153.028732,12.1216901 C152.710986,12.1216901 152.389859,12.1419718 152.065352,12.1825352 C151.740845,12.2230986 151.517746,12.2546479 151.396056,12.2771831 C151.274366,12.3019718 151.193239,12.4123944 151.152676,12.6084507 C151.112113,12.8022535 151.091831,12.9757746 151.091831,13.1290141 C151.091831,13.284507 151.16507,13.3622535 151.311549,13.3622535 Z M146.981408,7.83549296 C146.981408,7.73859155 147.025352,7.66647887 147.113239,7.61915493 C147.20338,7.56957746 147.499718,7.46816901 148.002254,7.31492958 C148.504789,7.15943662 149.047887,7.01746479 149.631549,6.88901408 C149.793803,6.83943662 149.87493,6.65239437 149.87493,6.32788732 C149.87493,6.1656338 149.814085,6.08450704 149.692394,6.08450704 C149.570704,6.08450704 149.323944,6.15323944 148.952113,6.29070423 C148.578028,6.42816901 148.269296,6.52619718 148.025915,6.58478873 C147.782535,6.64112676 147.312676,6.71774648 146.616338,6.81464789 C146.454085,6.83042254 146.360563,6.89577465 146.335775,7.01070423 C146.310986,7.12338028 146.286197,7.4884507 146.261408,8.10591549 C146.23662,8.72112676 146.224225,9.29239437 146.224225,9.81971831 C146.224225,10.3470423 146.241127,10.7977465 146.27493,11.171831 C146.306479,11.543662 146.334648,11.7543662 146.359437,11.8039437 C146.384225,11.8535211 146.452958,11.8783099 146.565634,11.8783099 C146.858592,11.8783099 147.251831,11.7971831 147.745352,11.6349296 C148.241127,11.4726761 148.676056,11.3419718 149.050141,11.2428169 C149.421972,11.1459155 149.632676,11.0771831 149.682254,11.0366197 C149.729577,10.9960563 149.753239,10.8946479 149.753239,10.7323944 C149.753239,10.5701408 149.681127,10.5059155 149.536901,10.5397183 C149.178592,10.5870423 148.877746,10.6107042 148.634366,10.6107042 C148.390986,10.6107042 148.212958,10.6388732 148.100282,10.6952113 C147.985352,10.7538028 147.867042,10.7830986 147.745352,10.7830986 C147.623662,10.7830986 147.506479,10.6895775 147.393803,10.5025352 C147.281127,10.315493 147.224789,10.1284507 147.224789,9.94140845 C147.224789,9.7543662 147.296901,9.66084507 147.441127,9.66084507 C147.587606,9.66084507 148.002254,9.55943662 148.68507,9.35661972 C149.365634,9.15380282 149.71831,9.03661972 149.743099,9.00507042 C149.767887,8.97352113 149.780282,8.84394366 149.780282,8.61633803 C149.780282,8.38873239 149.750986,8.27492958 149.692394,8.27492958 C149.636056,8.27492958 149.397183,8.29971831 148.975775,8.34929577 C148.554366,8.39661972 148.242254,8.4484507 148.039437,8.50478873 C147.83662,8.56338028 147.677746,8.59267606 147.562817,8.59267606 C147.450141,8.59267606 147.32507,8.49126761 147.187606,8.2884507 C147.050141,8.0856338 146.981408,7.93464789 146.981408,7.83549296 Z M148.221972,19.2033803 C148.774085,19.2033803 149.110986,18.9960563 149.232676,18.5814085 C149.354366,18.1690141 149.415211,17.6698592 149.415211,17.0839437 C149.415211,16.8090141 149.385915,16.4439437 149.327324,15.9887324 C149.270986,15.5357746 149.222535,15.2811268 149.181972,15.2247887 C149.141408,15.1661972 149.072676,15.1459155 148.975775,15.1639437 C148.439437,15.2608451 147.993239,15.3092958 147.637183,15.3092958 C147.281127,15.3092958 147.073803,15.3329577 147.015211,15.3802817 C146.958873,15.4298592 146.91493,15.5278873 146.88338,15.6743662 C146.655775,16.5983099 146.339155,17.4828169 145.933521,18.3278873 C145.883944,18.4405634 145.859155,18.5216901 145.859155,18.5712676 C145.859155,18.7492958 146.11493,18.8991549 146.626479,19.0208451 C147.138028,19.1425352 147.669859,19.2033803 148.221972,19.2033803 Z M152.869859,16.2084507 C152.919437,16.2084507 153.049014,16.2287324 153.258592,16.2692958 C153.470423,16.3098592 153.726197,16.3301408 154.025915,16.3301408 C154.325634,16.3301408 154.767324,16.423662 155.350986,16.6107042 C155.936901,16.7977465 156.290704,16.964507 156.412394,17.1109859 C156.534085,17.2552113 156.59493,17.4895775 156.59493,17.8140845 C156.59493,18.1385915 156.440563,18.6422535 156.131831,19.3250704 C155.823099,20.0056338 155.592113,20.3459155 155.438873,20.3459155 C155.28338,20.3459155 155.100845,20.1915493 154.891268,19.8828169 C153.868169,18.3752113 153.16169,17.3938028 152.771831,16.9385915 C152.625352,16.7605634 152.552113,16.5949296 152.552113,16.4416901 C152.552113,16.2861972 152.658028,16.2084507 152.869859,16.2084507 Z M182.173521,10.9047887 C182.173521,10.936338 182.15662,11.0738028 182.122817,11.3171831 C182.091268,11.5605634 182.067606,11.844507 182.051831,12.1690141 C182.036056,12.4935211 181.914366,13.1628169 181.686761,14.1769014 C181.459155,15.1909859 181.28,15.811831 181.149296,16.0394366 C181.020845,16.2670423 180.895775,16.4935211 180.774085,16.7188732 C180.652394,16.9464789 180.502535,17.0602817 180.324507,17.0602817 C180.27493,17.0602817 180.161127,17.0321127 179.983099,16.9757746 C179.80507,16.9194366 179.658592,16.8833803 179.543662,16.8676056 C178.797746,16.7211268 178.165634,16.4777465 177.647324,16.1374648 C177.581972,16.103662 177.524507,16.0867606 177.47493,16.0867606 C177.281127,16.0867606 177.184225,17.0197183 177.184225,18.8856338 C177.184225,19.7126761 177.192113,20.3459155 177.207887,20.7853521 L177.305915,21.8569014 C177.305915,22.456338 177.029859,22.7560563 176.477746,22.7560563 C176.103662,22.7560563 175.91662,22.6185915 175.91662,22.343662 C175.91662,22.2625352 175.925634,22.1769014 175.943662,22.0867606 C175.959437,21.9966197 175.967324,21.8704225 175.967324,21.708169 C175.967324,21.5459155 175.942535,20.8247887 175.892958,19.5447887 L175.747606,13.4095775 C175.731831,12.5983099 175.719437,12.1690141 175.710423,12.1216901 C175.703662,12.0721127 175.687887,12.0349296 175.663099,12.0101408 C175.63831,11.9853521 175.589859,11.9729577 175.517746,11.9729577 C175.44338,11.9729577 175.260845,12.0225352 174.970141,12.1216901 C174.677183,12.2185915 174.482254,12.315493 174.385352,12.4123944 C174.288451,12.5092958 174.190423,12.7729577 174.091268,13.2033803 C173.994366,13.6338028 173.945915,14.0439437 173.945915,14.4338028 L173.99662,15.1369014 C173.99662,15.364507 173.959437,15.5594366 173.88507,15.7216901 C173.812958,15.8839437 173.703662,15.9650704 173.557183,15.9650704 C173.248451,15.9650704 172.997183,15.6371831 172.80338,14.9814085 C172.607324,14.3233803 172.509296,13.6946479 172.509296,13.0952113 C172.509296,12.4935211 172.541972,12.075493 172.607324,11.8411268 C172.672676,11.604507 172.75831,11.4219718 172.864225,11.2935211 C172.970141,11.1628169 173.054648,11.0895775 173.117746,11.0738028 C173.183099,11.0580282 173.345352,11.0501408 173.604507,11.0501408 C173.865915,11.0501408 174.24338,10.9814085 174.736901,10.8439437 C175.232676,10.7042254 175.51662,10.6230986 175.588732,10.6005634 C175.663099,10.5757746 175.700282,10.5059155 175.700282,10.3909859 C175.700282,10.0507042 175.56169,9.88056338 175.284507,9.88056338 C174.944225,9.88056338 174.558873,9.4715493 174.128451,8.65352113 C173.698028,7.83323944 173.467042,7.19549296 173.435493,6.74028169 C173.403944,6.14084507 173.375775,5.79605634 173.350986,5.70591549 C173.326197,5.61802817 173.232676,5.5256338 173.070423,5.42873239 C173.020845,5.39492958 172.996056,5.32169014 172.996056,5.20901408 C172.996056,5.09408451 173.073803,4.88338028 173.229296,4.57690141 C173.382535,4.26816901 173.869296,3.63042254 174.689577,2.66366197 C175.507606,1.69915493 175.989859,1.13126761 176.136338,0.96 C176.282817,0.790985915 176.465352,0.706478873 176.683944,0.706478873 C176.902535,0.706478873 177.133521,0.815774648 177.376901,1.0343662 C177.620282,1.25295775 177.741972,1.45126761 177.741972,1.62929577 C177.741972,1.80957746 177.620282,1.99661972 177.376901,2.19042254 C176.047324,3.17971831 175.382535,3.78028169 175.382535,3.99211268 C175.382535,4.10478873 175.504225,4.16112676 175.747606,4.16112676 C175.990986,4.16112676 176.392113,4.08788732 176.950986,3.94140845 C177.512113,3.7971831 178.059718,3.72507042 178.593803,3.72507042 C179.130141,3.72507042 179.727324,3.80619718 180.385352,3.9684507 C181.041127,4.13070423 181.369014,4.38985915 181.369014,4.74591549 C181.369014,4.87661972 181.312676,5.03098592 181.2,5.20901408 C181.08507,5.38704225 180.987042,5.71492958 180.905915,6.19267606 C180.824789,6.67267606 180.642254,7.30140845 180.35831,8.07887324 C180.074366,8.85859155 179.810704,9.33408451 179.567324,9.50535211 C179.323944,9.6743662 179.044507,9.75887324 178.729014,9.75887324 C178.413521,9.75887324 178.093521,9.65408451 177.769014,9.44450704 C177.654085,9.36338028 177.532394,9.3228169 177.403944,9.3228169 C177.273239,9.3228169 177.207887,9.42760563 177.207887,9.6371831 C177.207887,9.99549296 177.39493,10.1746479 177.769014,10.1746479 C177.865915,10.1746479 178.100282,10.1419718 178.472113,10.0766197 C178.846197,10.0112676 179.243944,9.97859155 179.665352,9.97859155 C180.055211,9.97859155 180.570141,10.0676056 181.210141,10.2456338 C181.852394,10.423662 182.173521,10.6433803 182.173521,10.9047887 Z M178.837183,6.06084507 C178.837183,5.72056338 178.788732,5.4771831 178.691831,5.33070423 C178.59493,5.18422535 178.412394,5.03774648 178.144225,4.89126761 C177.876056,4.74478873 177.609014,4.6715493 177.343099,4.6715493 C177.07493,4.6715493 176.700845,4.78985915 176.220845,5.02647887 C175.743099,5.26084507 175.504225,5.48732394 175.504225,5.70591549 C175.504225,5.92676056 175.625915,6.01690141 175.869296,5.97633803 C176.112676,5.93577465 176.404507,5.91549296 176.744789,5.91549296 C177.08507,5.91549296 177.312676,5.95605634 177.427606,6.0371831 C177.540282,6.11830986 177.59662,6.25577465 177.59662,6.44957746 C177.59662,6.64338028 177.393803,6.84619718 176.988169,7.05802817 C176.582535,7.26985915 176.08,7.46478873 175.480563,7.6428169 C175.334085,7.69014085 175.260845,7.80394366 175.260845,7.98422535 C175.260845,8.27492958 175.357746,8.42028169 175.551549,8.42028169 C175.747606,8.42028169 175.995493,8.37971831 176.295211,8.29859155 C176.59493,8.21746479 176.886761,8.17690141 177.170704,8.17690141 C177.454648,8.17690141 177.633803,8.20169014 177.708169,8.25126761 C177.780282,8.29859155 177.856901,8.32225352 177.938028,8.32225352 C178.149859,8.32225352 178.352676,8.03830986 178.546479,7.47042254 C178.740282,6.90253521 178.837183,6.43267606 178.837183,6.06084507 Z M179.787042,13.4332394 C179.787042,13.1425352 179.76338,12.7571831 179.716056,12.2771831 C179.666479,11.7994366 179.585352,11.4952113 179.472676,11.364507 C179.357746,11.2360563 179.178592,11.171831 178.935211,11.171831 C178.691831,11.171831 178.448451,11.2 178.20507,11.256338 C177.96169,11.3126761 177.807324,11.3859155 177.741972,11.4760563 C177.678873,11.5639437 177.610141,11.8884507 177.535775,12.4495775 C177.463662,13.0084507 177.427606,13.548169 177.427606,14.0687324 C177.427606,14.5870423 177.435493,14.9070423 177.451268,15.0287324 C177.467042,15.1504225 177.593239,15.2439437 177.829859,15.3092958 C178.064225,15.3746479 178.270423,15.4073239 178.448451,15.4073239 C178.822535,15.4073239 179.139155,15.2766197 179.39831,15.0152113 C179.657465,14.7560563 179.787042,14.2287324 179.787042,13.4332394 Z M170.295211,4.18478873 C170.295211,4.28394366 170.348169,4.37746479 170.454085,4.46535211 C170.56,4.55549296 170.859718,4.63661972 171.353239,4.70873239 C171.849014,4.78309859 172.132958,4.89239437 172.20507,5.03661972 C172.279437,5.18309859 172.31662,5.37464789 172.31662,5.61126761 C172.31662,5.8456338 172.157746,6.08 171.84,6.3143662 C171.524507,6.55098592 171.301408,6.66929577 171.170704,6.66929577 C171.042254,6.66929577 170.848451,6.53971831 170.589296,6.28056338 C170.327887,6.01915493 170.112676,5.84788732 169.943662,5.76676056 C169.772394,5.6856338 169.589859,5.64507042 169.396056,5.64507042 C169.2,5.64507042 169.037746,5.69802817 168.909296,5.80394366 C168.778592,5.90985915 168.596056,6.10478873 168.36169,6.38873239 C168.12507,6.67267606 167.917746,6.93183099 167.739718,7.16619718 C167.56169,7.4028169 167.472676,7.56169014 167.472676,7.6428169 C167.472676,7.72394366 167.525634,7.8084507 167.631549,7.89633803 C167.737465,7.98647887 167.895211,8.0315493 168.104789,8.0315493 C168.31662,8.0315493 168.75493,7.93014085 169.419718,7.72732394 C170.084507,7.52450704 170.566761,7.42309859 170.866479,7.42309859 C171.168451,7.42309859 171.36338,7.47943662 171.451268,7.59211268 C171.541408,7.70704225 171.586479,7.87830986 171.586479,8.10591549 C171.586479,8.47774648 171.229296,8.76169014 170.51493,8.95774648 C170.271549,9.02084507 170.113803,9.08169014 170.04169,9.14028169 C169.967324,9.19661972 169.877183,9.26873239 169.771268,9.35661972 C169.667606,9.44676056 169.615775,9.58084507 169.615775,9.75887324 C169.615775,10.051831 169.647324,10.2388732 169.710423,10.32 C169.775775,10.4011268 169.889577,10.4247887 170.051831,10.3909859 C170.669296,10.2467606 171.156056,10.1746479 171.512113,10.1746479 C171.674366,10.1746479 171.780282,10.2309859 171.829859,10.343662 C171.877183,10.456338 171.900845,10.6264789 171.900845,10.8540845 C171.900845,11.0816901 171.849014,11.2439437 171.745352,11.3408451 C171.639437,11.4377465 171.305915,11.6405634 170.744789,11.9492958 C170.185915,12.2580282 169.703662,12.4935211 169.298028,12.6557746 C169.023099,12.7684507 168.840563,12.9183099 168.750423,13.1053521 C168.660282,13.2923944 168.615211,13.5357746 168.615211,13.835493 C168.615211,14.1352113 168.680563,14.3785915 168.811268,14.5656338 C168.941972,14.7526761 169.096338,14.8461972 169.274366,14.8461972 C169.452394,14.8461972 169.748732,14.6997183 170.16338,14.4067606 C170.575775,14.1160563 170.875493,13.8208451 171.062535,13.5211268 C171.249577,13.2191549 171.383662,13.068169 171.464789,13.068169 C171.545915,13.068169 171.586479,13.1414085 171.586479,13.2878873 C171.586479,13.8242254 171.12,14.6726761 170.187042,15.8332394 C169.254085,16.9915493 168.600563,17.5707042 168.226479,17.5707042 C168.016901,17.5707042 167.830986,17.3802817 167.668732,16.9994366 C167.506479,16.6185915 167.425352,16.2174648 167.425352,15.7960563 C167.425352,15.3746479 167.456901,14.8676056 167.52,14.2749296 C167.585352,13.6822535 167.618028,13.3250704 167.618028,13.2033803 C167.618028,13.0816901 167.594366,13.0050704 167.547042,12.9735211 C167.497465,12.9397183 167.346479,12.9228169 167.094085,12.9228169 C166.843944,12.9228169 166.617465,12.9712676 166.414648,13.068169 C166.211831,13.1673239 166.061972,13.2169014 165.96507,13.2169014 C165.865915,13.2169014 165.744225,13.1312676 165.6,12.96 C165.453521,12.7887324 165.380282,12.5814085 165.380282,12.3380282 C165.380282,12.0946479 165.412958,11.9492958 165.47831,11.9019718 C165.541408,11.8523944 165.71493,11.8152113 165.998873,11.7904225 C166.282817,11.7678873 166.611831,11.6912676 166.985915,11.5605634 C167.36,11.4298592 167.575211,11.3329577 167.631549,11.2698592 C167.687887,11.204507 167.723944,11.0828169 167.739718,10.9047887 L167.790423,10.2692958 C167.790423,9.78253521 167.664225,9.38929577 167.411831,9.08957746 C167.159437,8.78985915 166.976901,8.64 166.864225,8.64 C166.832676,8.64 166.8,8.66028169 166.766197,8.70084507 C166.734648,8.74140845 166.686197,8.82704225 166.620845,8.95774648 C166.555493,9.08619718 166.527324,9.20788732 166.536338,9.3228169 C166.543099,9.43549296 166.546479,9.50760563 166.546479,9.53915493 C166.546479,9.92901408 166.413521,10.1769014 166.147606,10.2828169 C165.879437,10.3887324 165.627042,10.5307042 165.390423,10.7087324 C165.156056,10.8867606 164.807887,11.0569014 164.345915,11.2191549 C163.883944,11.3814085 163.567324,11.4625352 163.396056,11.4625352 C163.224789,11.4625352 163.139155,11.4140845 163.139155,11.3171831 C163.139155,11.0580282 163.780282,10.2309859 165.062535,8.83605634 C165.420845,8.43042254 165.96507,7.68788732 166.695211,6.6084507 C167.425352,5.52901408 167.915493,4.7256338 168.165634,4.19830986 C168.418028,3.67098592 168.706479,3.10760563 169.030986,2.50816901 C169.355493,1.90647887 169.550423,1.57746479 169.615775,1.52112676 C169.678873,1.46478873 169.767887,1.43661972 169.882817,1.43661972 C169.995493,1.43661972 170.140845,1.53014085 170.318873,1.7171831 C170.499155,1.90197183 170.690704,2.08788732 170.893521,2.27492958 C171.096338,2.46197183 171.197746,2.64112676 171.197746,2.81239437 C171.197746,2.98140845 171.11662,3.1143662 170.954366,3.21126761 C170.51493,3.47267606 170.295211,3.7971831 170.295211,4.18478873 Z"
        id="Shape"></path>
    </g>
  </g>
</svg>
