<?xml version="1.0" standalone="no"?>
<!DOCTYPE svg PUBLIC "-//W3C//DTD SVG 20010904//EN"
  "http://www.w3.org/TR/2001/REC-SVG-20010904/DTD/svg10.dtd">
<svg version="1.0" xmlns="http://www.w3.org/2000/svg"
     width="700.000000pt" height="700.000000pt" viewBox="0 0 700.000000 700.000000"
     preserveAspectRatio="xMidYMid meet">
  <metadata>
    Created by potrace 1.11, written by Peter Selinger 2001-2013
  </metadata>
  <g transform="translate(0.000000,700.000000) scale(0.100000,-0.100000)"
     fill="#000000" stroke="none">
    <path d="M3259 6896 c-2 -2 -40 -7 -84 -10 -44 -3 -91 -8 -104 -11 -13 -2 -44
-7 -69 -10 -226 -26 -683 -154 -824 -231 -14 -8 -33 -14 -42 -14 -9 0 -16 -4
-16 -10 0 -5 -7 -10 -15 -10 -22 0 -242 -114 -365 -188 -562 -342 -1018 -842
-1300 -1426 -99 -206 -202 -481 -235 -633 -2 -10 -13 -61 -25 -113 -21 -91
-35 -165 -45 -240 -3 -19 -7 -48 -10 -65 -2 -16 -7 -64 -11 -105 -3 -41 -8
-91 -10 -110 -5 -46 -4 -373 0 -430 3 -25 7 -79 10 -120 4 -41 11 -102 16
-135 5 -33 12 -80 15 -105 3 -25 8 -53 11 -62 5 -18 11 -47 19 -93 10 -56 66
-260 97 -350 152 -447 375 -833 688 -1185 154 -174 350 -353 520 -476 95 -69
219 -154 224 -154 3 0 31 -16 61 -35 241 -154 755 -357 1015 -400 19 -3 51
-10 70 -15 19 -4 53 -11 75 -14 22 -3 74 -10 115 -16 144 -21 217 -25 460 -25
273 0 380 8 555 40 17 3 44 7 60 10 17 3 41 7 55 10 14 3 39 8 55 10 54 10
218 55 330 92 504 164 969 448 1339 818 398 397 675 850 845 1380 50 156 115
431 126 530 3 28 7 61 10 74 2 13 7 58 10 100 4 42 8 94 10 116 6 58 6 370 0
435 -2 30 -7 86 -10 124 -4 39 -8 72 -9 75 -2 4 -7 35 -10 71 -9 81 -48 275
-82 400 -199 736 -650 1394 -1264 1847 -98 72 -266 183 -277 183 -4 0 -14 6
-22 14 -23 20 -211 117 -319 166 -250 112 -551 206 -782 245 -19 3 -42 8 -50
10 -17 4 -57 10 -144 21 -33 4 -73 9 -90 11 -41 6 -572 14 -577 9z m476 -200
c140 -11 212 -20 331 -41 403 -70 829 -238 1174 -463 244 -160 515 -395 680
-592 30 -36 57 -67 60 -70 38 -36 211 -285 282 -405 186 -314 328 -696 393
-1055 10 -55 15 -91 20 -135 4 -27 8 -61 11 -75 22 -134 22 -554 -1 -720 -2
-14 -6 -47 -10 -75 -5 -44 -35 -208 -49 -274 -69 -318 -219 -685 -402 -979
-62 -99 -225 -322 -293 -400 l-28 -33 -23 33 c-50 72 -229 190 -375 247 -89
35 -131 46 -240 66 -35 6 -243 7 -253 1 -4 -2 -28 -7 -54 -10 -134 -18 -317
-100 -453 -204 -110 -83 -138 -120 -123 -163 18 -52 88 -68 124 -27 63 71 247
182 366 222 284 94 616 20 861 -192 26 -23 57 -47 69 -53 19 -10 15 -17 -68
-96 -362 -346 -763 -589 -1222 -743 -81 -27 -158 -51 -172 -54 -14 -3 -72 -17
-130 -31 -58 -13 -154 -32 -215 -41 -60 -8 -121 -17 -135 -20 -53 -8 -251 -18
-375 -17 -188 0 -430 23 -575 53 -25 5 -56 12 -70 14 -65 10 -248 61 -369 102
-368 124 -735 330 -1031 578 -76 64 -260 239 -260 248 0 4 6 8 14 8 7 0 24 10
37 23 130 119 323 224 447 243 20 3 51 9 67 13 98 23 321 -7 445 -60 48 -21
55 -25 110 -55 46 -25 170 -117 194 -143 33 -36 98 -26 120 18 18 33 3 74 -40
111 -209 178 -449 275 -692 279 -212 4 -370 -41 -585 -166 -42 -24 -176 -139
-188 -161 l-12 -22 -29 32 c-47 55 -202 260 -240 318 -269 414 -445 880 -504
1335 -3 27 -8 61 -10 75 -22 174 -22 589 1 721 2 13 6 42 8 64 14 122 66 364
108 500 137 448 365 856 669 1199 45 51 224 231 275 277 514 458 1195 744
1890 795 50 3 91 7 92 8 5 4 296 -2 378 -8z"/>
    <path d="M3410 5822 c-234 -33 -439 -224 -494 -462 -18 -78 -14 -232 7 -301
78 -242 287 -408 538 -426 282 -21 525 150 615 432 28 90 26 258 -5 345 -102
287 -368 453 -661 412z m145 -146 c270 -26 457 -314 375 -578 -21 -67 -82
-170 -119 -201 -104 -84 -191 -118 -311 -119 -190 -1 -359 117 -425 296 -97
261 65 542 345 600 36 7 70 12 75 10 6 -1 33 -5 60 -8z"/>
    <path d="M3389 4526 c-2 -2 -31 -6 -64 -9 -33 -4 -71 -9 -85 -11 -14 -3 -38
-8 -55 -12 -16 -3 -66 -17 -110 -31 -201 -63 -386 -170 -556 -322 -65 -58 -70
-66 -67 -99 4 -44 44 -78 82 -68 14 3 56 33 93 67 405 362 964 443 1434 208
74 -37 235 -140 274 -176 86 -79 120 -103 145 -103 36 0 70 38 70 78 0 26 -12
41 -78 99 -97 84 -104 89 -172 134 -182 119 -376 196 -590 234 -42 7 -314 17
-321 11z"/>
    <path d="M3170 3890 l-1395 -5 -56 -26 c-68 -32 -118 -81 -150 -145 -24 -49
-24 -51 -27 -440 -3 -367 -2 -392 15 -413 27 -33 89 -33 115 -1 18 23 19 41
17 396 -3 428 -4 419 86 464 l49 24 1706 0 1705 0 47 -21 c29 -14 55 -34 68
-55 19 -32 20 -49 20 -409 0 -344 2 -379 18 -398 26 -33 78 -36 107 -7 l23 24
0 375 c0 253 -4 390 -11 421 -26 97 -107 172 -220 202 -71 18 -372 20 -2117
14z"/>
    <path d="M1773 2634 c-151 -31 -279 -144 -328 -289 -98 -291 112 -582 423
-586 330 -5 545 379 375 668 -93 159 -288 245 -470 207z m211 -165 c218 -102
232 -393 26 -524 -110 -70 -278 -42 -369 61 -139 158 -63 416 141 479 55 17
148 10 202 -16z"/>
    <path d="M3458 2644 c-2 -1 -21 -5 -43 -8 -63 -10 -175 -70 -228 -123 -28 -28
-64 -79 -85 -123 -36 -73 -37 -78 -37 -191 0 -113 1 -117 37 -190 95 -192 305
-288 513 -234 217 56 359 281 320 505 -27 158 -164 307 -323 349 -39 11 -148
22 -154 15z m160 -174 c208 -92 236 -376 49 -511 -49 -35 -104 -51 -178 -51
-148 0 -282 133 -282 282 0 219 215 366 411 280z"/>
    <path d="M5053 2634 c-255 -53 -405 -294 -341 -545 52 -206 242 -341 458 -326
41 3 98 14 127 25 193 73 312 290 274 495 -44 240 -282 401 -518 351z m198
-161 c188 -84 239 -319 103 -472 -81 -91 -223 -120 -337 -68 -226 103 -230
417 -6 531 58 29 74 33 131 31 38 -2 84 -11 109 -22z"/>
    <path d="M3343 1719 c-163 -27 -297 -82 -437 -179 -158 -110 -196 -168 -142
-220 39 -36 65 -29 153 43 147 118 281 182 440 210 247 42 502 -30 716 -203
100 -81 117 -87 157 -53 61 51 33 102 -115 208 -237 170 -507 238 -772 194z"/>
  </g>
</svg>
