<svg viewBox="0 0 33 25" height="1em" width="1em" xmlns="http://www.w3.org/2000/svg">
  <path
    d="M18.006 6.538c0-1.973.662-3.554 1.988-4.743C21.32.605 22.971.01 24.941.01c2.517 0 4.488.799 5.916 2.397C32.285 4.004 33 6.13 33 8.782c0 2.719-.424 5.032-1.275 6.936-.85 1.903-1.869 3.483-3.061 4.743-1.188 1.258-2.43 2.244-3.723 2.958-1.291.714-2.413 1.239-3.365 1.581l-3.265-5.508c1.36-.545 2.517-1.412 3.468-2.602.953-1.19 1.496-2.465 1.633-3.824-1.359 0-2.602-.597-3.724-1.786-1.122-1.19-1.682-2.771-1.682-4.742zm-17.647 0c0-1.973.663-3.554 1.989-4.743C3.674.604 5.324.01 7.295.01c2.518 0 4.488.799 5.916 2.397 1.429 1.597 2.143 3.723 2.143 6.375 0 2.719-.424 5.032-1.275 6.936-.85 1.903-1.869 3.483-3.06 4.743-1.188 1.258-2.431 2.244-3.724 2.958-1.291.714-2.412 1.239-3.365 1.581L.666 19.492c1.36-.545 2.516-1.412 3.467-2.602.953-1.19 1.497-2.465 1.633-3.824-1.359 0-2.602-.597-3.723-1.786C.92 10.09.359 8.509.359 6.538z"
    fill="currentColor"/>
</svg>
